<svg width="8" height="7" viewBox="0 0 8 7" fill="none" xmlns="http://www.w3.org/2000/svg">
<path d="M3.01177 2.35295L4.70589 4.04707L4.04707 4.70589L2.35295 3.01177L0.658825 4.70589L0 4.04707L1.69412 2.35295L0 0.658825L0.658825 0L2.35295 1.69412L4.04707 0L4.70589 0.658825L3.01177 2.35295ZM6.73523 5.96425L7.23788 5.42472C7.33011 5.32993 7.41243 5.233 7.49049 5.13822C7.56567 5.04684 7.63364 4.94977 7.69378 4.84787C7.75011 4.75367 7.79626 4.65375 7.83145 4.5498C7.86488 4.44866 7.88182 4.3428 7.88163 4.23629C7.88303 4.10388 7.85855 3.97246 7.80958 3.84943C7.7632 3.73379 7.69069 3.63045 7.59771 3.5475C7.49896 3.46113 7.38349 3.39602 7.25847 3.35623C6.9582 3.26679 6.63739 3.27414 6.34152 3.37724C6.20645 3.42827 6.08389 3.50769 5.98212 3.61012C5.88386 3.70827 5.80768 3.82627 5.75867 3.95623C5.71161 4.08163 5.68679 4.21429 5.68533 4.34823L5.68362 4.45976H6.40801L6.41101 4.35297C6.41176 4.29336 6.42027 4.23411 6.43632 4.1767C6.45202 4.12631 6.47705 4.07932 6.5101 4.03817C6.54354 4.00035 6.5852 3.97071 6.6319 3.95154C6.73759 3.90966 6.85482 3.90722 6.96216 3.94468C7.00084 3.96165 7.03538 3.98683 7.06338 4.01846C7.09197 4.05222 7.11394 4.09107 7.12814 4.13297C7.14492 4.1839 7.1536 4.23716 7.15387 4.29079C7.15335 4.33295 7.14832 4.37494 7.13886 4.41603C7.12515 4.4651 7.10556 4.51233 7.08051 4.5567C7.04412 4.6208 7.00267 4.68189 6.95656 4.7394C6.89332 4.82158 6.82589 4.90046 6.75454 4.97571L5.73979 6.08308V6.58825H8.00001V5.96425H6.73523Z" fill="black"/>
</svg>
