<svg width="9" height="7" viewBox="0 0 9 7" fill="none" xmlns="http://www.w3.org/2000/svg">
<path d="M6.63157 3.78947H3.78947V6.63157H2.8421V3.78947H0V2.8421H2.8421V0H3.78947V2.8421H6.63157V3.78947ZM8.99999 5.92104C8.99999 6.06157 8.95831 6.19894 8.88024 6.31579C8.80217 6.43263 8.6912 6.5237 8.56137 6.57748C8.43153 6.63126 8.28867 6.64533 8.15084 6.61792C8.01302 6.5905 7.88641 6.52283 7.78704 6.42346C7.68767 6.32409 7.62 6.19749 7.59259 6.05966C7.56517 5.92183 7.57924 5.77897 7.63302 5.64914C7.6868 5.51931 7.77787 5.40834 7.89471 5.33026C8.01156 5.25219 8.14893 5.21052 8.28946 5.21052C8.4779 5.21052 8.65863 5.28538 8.79188 5.41863C8.92513 5.55188 8.99999 5.7326 8.99999 5.92104ZM8.99999 4.02631C8.99999 4.16684 8.95831 4.30421 8.88024 4.42106C8.80217 4.5379 8.6912 4.62897 8.56137 4.68275C8.43153 4.73653 8.28867 4.7506 8.15084 4.72318C8.01302 4.69577 7.88641 4.6281 7.78704 4.52873C7.68767 4.42936 7.62 4.30275 7.59259 4.16493C7.56517 4.0271 7.57924 3.88423 7.63302 3.7544C7.6868 3.62457 7.77787 3.5136 7.89471 3.43553C8.01156 3.35746 8.14893 3.31578 8.28946 3.31578C8.4779 3.31578 8.65863 3.39064 8.79188 3.52389C8.92513 3.65714 8.99999 3.83787 8.99999 4.02631ZM8.99999 2.13158C8.99999 2.2721 8.95831 2.40948 8.88024 2.52632C8.80217 2.64317 8.6912 2.73424 8.56137 2.78802C8.43153 2.84179 8.28867 2.85586 8.15084 2.82845C8.01302 2.80103 7.88641 2.73336 7.78704 2.63399C7.68767 2.53462 7.62 2.40802 7.59259 2.27019C7.56517 2.13236 7.57924 1.9895 7.63302 1.85967C7.6868 1.72984 7.77787 1.61887 7.89471 1.5408C8.01156 1.46272 8.14893 1.42105 8.28946 1.42105C8.4779 1.42105 8.65863 1.49591 8.79188 1.62916C8.92513 1.76241 8.99999 1.94313 8.99999 2.13158Z" fill="black"/>
</svg>
