<svg width="10" height="8" viewBox="0 0 10 8" fill="none" xmlns="http://www.w3.org/2000/svg">
<path d="M9.77103 0.210477C9.70488 0.143784 9.62618 0.0908481 9.53947 0.0547234C9.45276 0.0185986 9.35976 0 9.26583 0C9.17189 0 9.07889 0.0185986 8.99218 0.0547234C8.90547 0.0908481 8.82677 0.143784 8.76062 0.210477L3.45953 5.51868L1.23236 3.2844C1.16368 3.21805 1.0826 3.16589 0.993762 3.13087C0.904921 3.09586 0.810053 3.07869 0.714576 3.08035C0.619099 3.082 0.524882 3.10244 0.437305 3.1405C0.349728 3.17857 0.270506 3.23351 0.204161 3.30219C0.137817 3.37087 0.0856499 3.45194 0.0506385 3.54078C0.0156271 3.62963 -0.00154304 3.72449 0.00010881 3.81997C0.00176066 3.91545 0.0222021 4.00966 0.0602657 4.09724C0.0983293 4.18482 0.15327 4.26404 0.22195 4.33038L2.95432 7.06276C3.02047 7.12945 3.09917 7.18239 3.18588 7.21851C3.27259 7.25464 3.3656 7.27324 3.45953 7.27324C3.55346 7.27324 3.64647 7.25464 3.73318 7.21851C3.81989 7.18239 3.89859 7.12945 3.96473 7.06276L9.77103 1.25646C9.84326 1.18983 9.9009 1.10896 9.94032 1.01895C9.97975 0.92894 10.0001 0.831738 10.0001 0.733471C10.0001 0.635203 9.97975 0.538001 9.94032 0.44799C9.9009 0.357978 9.84326 0.277109 9.77103 0.210477Z" fill="white"/>
</svg>
