<svg width="8" height="7" viewBox="0 0 8 7" fill="none" xmlns="http://www.w3.org/2000/svg">
<path d="M0 3.20342H8V3.87008H6.05965C6.16492 4.09107 6.21806 4.33328 6.21495 4.57804C6.22118 4.81026 6.17134 5.04056 6.06966 5.24942C5.96798 5.45829 5.81745 5.63957 5.63083 5.77791C5.1813 6.09421 4.639 6.25133 4.09 6.22433C3.68887 6.22704 3.29164 6.14542 2.92407 5.98478C2.58839 5.84552 2.29741 5.61673 2.0829 5.32337C1.88539 5.04329 1.78117 4.70809 1.78505 4.36539V4.315H1.91271V4.31451H2.06448V4.315H2.67556V4.36537C2.66859 4.52154 2.69947 4.67709 2.76557 4.81875C2.83167 4.96042 2.93102 5.08401 3.05517 5.17901C3.35624 5.39337 3.72089 5.49975 4.09 5.48091C4.41583 5.50221 4.73976 5.41701 5.01296 5.23815C5.11423 5.16326 5.1956 5.06469 5.24994 4.95105C5.30428 4.83742 5.32993 4.7122 5.32464 4.58635C5.33173 4.46477 5.30927 4.34328 5.2592 4.23226C5.20912 4.12125 5.13292 4.02401 5.03709 3.94884C4.99782 3.92039 4.95703 3.89409 4.91491 3.87007H0V3.20342ZM5.93099 0.917582C5.74364 0.626476 5.4787 0.393485 5.16604 0.244866C4.81749 0.0788259 4.43523 -0.00426205 4.04921 0.00211075C3.51093 -0.0209905 2.9817 0.146129 2.55431 0.474169C2.37082 0.615878 2.22282 0.798326 2.12199 1.00709C2.02116 1.21585 1.97028 1.44521 1.97336 1.67702C1.97181 1.89671 2.02071 2.11382 2.11629 2.31163H3.27037C3.23332 2.28778 3.18799 2.26462 3.15807 2.24023C3.06764 2.17353 2.99423 2.08642 2.94381 1.98599C2.8934 1.88557 2.86739 1.77466 2.86792 1.66229C2.86121 1.53402 2.88552 1.40602 2.93878 1.28914C2.99204 1.17226 3.07269 1.06993 3.17388 0.990826C3.42992 0.813256 3.73817 0.726794 4.04921 0.745302C4.3874 0.723801 4.72137 0.829843 4.98521 1.0425C5.09555 1.14641 5.18196 1.27308 5.23845 1.41372C5.29493 1.55437 5.32014 1.70562 5.31232 1.85698V1.90739H6.20262V1.85698C6.20411 1.52427 6.10981 1.19816 5.93099 0.917582Z" fill="black"/>
</svg>
