<svg width="17" height="17" viewBox="0 0 17 17" fill="none" xmlns="http://www.w3.org/2000/svg">
<path d="M16.7612 15.555L13.6096 12.4288C14.833 10.9035 15.4254 8.96741 15.2651 7.01867C15.1048 5.06994 14.204 3.25668 12.7478 1.95175C11.2917 0.646809 9.39088 -0.0506208 7.4363 0.00286361C5.48172 0.056348 3.62191 0.856681 2.2393 2.2393C0.856681 3.62191 0.056348 5.48172 0.00286361 7.4363C-0.0506208 9.39088 0.646809 11.2917 1.95175 12.7478C3.25668 14.204 5.06994 15.1048 7.01867 15.2651C8.96741 15.4254 10.9035 14.833 12.4288 13.6096L15.555 16.7358C15.6339 16.8154 15.7279 16.8786 15.8314 16.9217C15.9349 16.9648 16.046 16.987 16.1581 16.987C16.2702 16.987 16.3813 16.9648 16.4848 16.9217C16.5883 16.8786 16.6823 16.8154 16.7612 16.7358C16.9144 16.5774 16.9999 16.3657 16.9999 16.1454C16.9999 15.9251 16.9144 15.7134 16.7612 15.555ZM7.66318 13.6096C6.48709 13.6096 5.3374 13.2609 4.35952 12.6075C3.38163 11.9541 2.61946 11.0254 2.16938 9.93879C1.71931 8.85222 1.60155 7.65659 1.831 6.50309C2.06044 5.34959 2.62679 4.29004 3.45841 3.45841C4.29004 2.62679 5.34959 2.06044 6.50309 1.831C7.65659 1.60155 8.85222 1.71931 9.93879 2.16938C11.0254 2.61946 11.9541 3.38163 12.6075 4.35952C13.2609 5.3374 13.6096 6.48709 13.6096 7.66318C13.6096 9.24028 12.9831 10.7528 11.868 11.868C10.7528 12.9831 9.24028 13.6096 7.66318 13.6096Z" fill="#BAC1CE"/>
</svg>
