<svg width="8" height="8" viewBox="0 0 8 8" fill="none" xmlns="http://www.w3.org/2000/svg">
<path d="M3.996 4.45678e-06C3.20505 0.000795412 2.43208 0.236063 1.77481 0.67607C1.11754 1.11608 0.605474 1.74107 0.303337 2.47204C0.00119959 3.20301 -0.0774433 4.00715 0.077349 4.78282C0.232141 5.55848 0.61342 6.27083 1.17299 6.82984C1.73256 7.38885 2.4453 7.76942 3.22111 7.92344C3.99693 8.07745 4.80099 7.99801 5.53166 7.69514C6.26233 7.39227 6.88681 6.87958 7.32616 6.22187C7.76551 5.56416 8 4.79096 8 4C8.00026 3.47431 7.89684 2.95372 7.69567 2.46804C7.49449 1.98236 7.1995 1.54112 6.82759 1.16958C6.45568 0.798045 6.01415 0.503501 5.52827 0.302809C5.04239 0.102118 4.5217 -0.000780451 3.996 4.45678e-06ZM4 7.11112C3.38468 7.11112 2.78318 6.92865 2.27156 6.5868C1.75994 6.24495 1.36118 5.75906 1.12571 5.19058C0.890237 4.62209 0.828627 3.99655 0.94867 3.39306C1.06871 2.78956 1.36502 2.23521 1.80011 1.80012C2.23521 1.36502 2.78956 1.06872 3.39305 0.948672C3.99655 0.82863 4.62209 0.89024 5.19057 1.12571C5.75905 1.36119 6.24494 1.75994 6.5868 2.27156C6.92865 2.78318 7.11111 3.38469 7.11111 4C7.11123 4.40859 7.03083 4.8132 6.87452 5.19071C6.71821 5.56822 6.48906 5.91123 6.20014 6.20014C5.91122 6.48906 5.56821 6.71822 5.19071 6.87453C4.8132 7.03083 4.40859 7.11123 4 7.11112ZM5.38 4.8H6.048C5.8873 5.21245 5.60582 5.56676 5.2404 5.81656C4.87497 6.06636 4.44264 6.20001 4 6.20001C3.55736 6.20001 3.12503 6.06636 2.75961 5.81656C2.39419 5.56676 2.1127 5.21245 1.952 4.8H2.62C2.7592 5.04307 2.96012 5.24506 3.20244 5.38554C3.44477 5.52602 3.7199 5.6 4 5.6C4.2801 5.6 4.55523 5.52602 4.79756 5.38554C5.03989 5.24506 5.24081 5.04307 5.38 4.8ZM2 3C2 2.88134 2.03519 2.76533 2.10112 2.66666C2.16705 2.56799 2.26076 2.49109 2.37039 2.44568C2.48003 2.40026 2.60067 2.38838 2.71706 2.41153C2.83344 2.43468 2.94035 2.49183 3.02427 2.57574C3.10818 2.65965 3.16532 2.76656 3.18847 2.88295C3.21162 2.99934 3.19974 3.11998 3.15433 3.22961C3.10892 3.33925 3.03201 3.43296 2.93334 3.49889C2.83467 3.56482 2.71867 3.60001 2.6 3.60001C2.44087 3.60001 2.28826 3.53679 2.17574 3.42427C2.06322 3.31175 2 3.15913 2 3ZM4.8 3C4.8 2.88134 4.83519 2.76533 4.90112 2.66666C4.96705 2.56799 5.06076 2.49109 5.17039 2.44568C5.28003 2.40026 5.40067 2.38838 5.51706 2.41153C5.63344 2.43468 5.74035 2.49183 5.82427 2.57574C5.90818 2.65965 5.96532 2.76656 5.98847 2.88295C6.01162 2.99934 5.99974 3.11998 5.95433 3.22961C5.90892 3.33925 5.83201 3.43296 5.73334 3.49889C5.63467 3.56482 5.51867 3.60001 5.4 3.60001C5.24087 3.60001 5.08826 3.53679 4.97574 3.42427C4.86322 3.31175 4.8 3.15913 4.8 3Z" fill="black"/>
</svg>
