<svg width="7" height="8" viewBox="0 0 7 8" fill="none" xmlns="http://www.w3.org/2000/svg">
<path d="M6.58825 7.05884V8.00001H0V7.05884H6.58825ZM5.17648 3.86589C5.16098 4.17647 5.06879 4.47838 4.90812 4.74462C4.74746 5.01087 4.52334 5.23317 4.25578 5.39165C3.98823 5.55013 3.68558 5.63986 3.37488 5.65282C3.06418 5.66577 2.75512 5.60155 2.4753 5.46589C2.15278 5.32636 1.87925 5.09372 1.68978 4.79776C1.5003 4.50181 1.4035 4.15603 1.41177 3.80471V0.002353H0.470589V3.86589C0.48651 4.30891 0.60652 4.74195 0.820904 5.12997C1.03529 5.51798 1.33802 5.85007 1.7046 6.09934C2.07118 6.34861 2.4913 6.50807 2.93096 6.5648C3.37062 6.62153 3.81745 6.57395 4.2353 6.42589C4.79112 6.24063 5.27335 5.88291 5.61188 5.40473C5.95042 4.92656 6.12759 4.35286 6.11766 3.76707V0.002353H5.17648V3.86589ZM5.17648 0H6.11766H5.17648ZM1.41177 0H0.470589H1.41177Z" fill="black"/>
</svg>
