<svg width="9" height="9" viewBox="0 0 9 9" fill="none" xmlns="http://www.w3.org/2000/svg">
<path d="M3.54167 3.79308C3.54559 3.74431 3.55602 3.69627 3.5727 3.65027H1.88856L2.73724 1.27759L3.57726 3.62654C3.6113 3.50302 3.68469 3.39396 3.78629 3.3159C3.8879 3.23784 4.01219 3.19504 4.14032 3.19398H4.33469L3.19398 0H2.28142L0 6.38797H0.912567L1.56505 4.56284H3.54167V3.79308ZM4.75128 6.8625C4.53828 6.6047 4.43142 6.27548 4.45241 5.94172V4.7052C4.45223 4.62653 4.4676 4.5486 4.49762 4.47589C4.52764 4.40318 4.57173 4.33711 4.62735 4.28149C4.68298 4.22586 4.74904 4.18177 4.82175 4.15175C4.89447 4.12173 4.97239 4.10637 5.05106 4.10655H6.47147C6.82877 4.14799 7.15598 4.32665 7.38404 4.60481C7.38404 4.60481 8.17249 5.43434 8.73646 5.94081C8.80388 5.98911 8.86112 6.05021 8.90491 6.12065C8.94869 6.19108 8.97816 6.26945 8.99164 6.35128C9.00512 6.43311 9.00233 6.51679 8.98344 6.59754C8.96455 6.67829 8.92993 6.75453 8.88156 6.82189C8.856 6.8574 8.82696 6.89026 8.79487 6.92L7.26768 8.43029C7.17239 8.55667 7.03082 8.64006 6.87409 8.66213C6.71735 8.6842 6.55827 8.64316 6.43177 8.54802C6.38715 8.51473 6.34751 8.47524 6.31405 8.43075L5.53381 7.64229L4.75128 6.8625ZM5.88286 5.05562C5.78948 5.0561 5.7001 5.0936 5.63432 5.15989C5.56854 5.22618 5.53174 5.31585 5.53198 5.40924C5.53222 5.50262 5.56949 5.5921 5.63561 5.65805C5.70173 5.724 5.7913 5.76103 5.88469 5.76103C5.97807 5.76103 6.06765 5.724 6.13377 5.65805C6.19989 5.5921 6.23715 5.50262 6.2374 5.40924C6.23764 5.31585 6.20083 5.22618 6.13506 5.15989C6.06928 5.0936 5.9799 5.0561 5.88651 5.05562H5.88286Z" fill="black"/>
</svg>
