<svg width="16" height="16" viewBox="0 0 16 16" fill="none" xmlns="http://www.w3.org/2000/svg">
<path fill-rule="evenodd" clip-rule="evenodd" d="M0.300014 5.2918H3.60842V15.9366H0.300014V5.2918ZM1.95473 0.000343826C3.01261 0.000343826 3.87211 0.859848 3.87211 1.91773C3.87211 2.97664 3.01261 3.83648 1.95473 3.83648C1.69979 3.84131 1.44645 3.79527 1.20951 3.70104C0.97257 3.60682 0.756793 3.4663 0.574792 3.28772C0.392791 3.10913 0.248218 2.89605 0.149525 2.66094C0.0508322 2.42583 0 2.1734 0 1.91841C0 1.66343 0.0508322 1.411 0.149525 1.17589C0.248218 0.940776 0.392791 0.727698 0.574792 0.54911C0.756793 0.370523 0.97257 0.23001 1.20951 0.135785C1.44645 0.0415611 1.69979 -0.00448337 1.95473 0.000343826ZM5.6836 5.29145H8.85689V6.74608H8.9009C9.34269 5.90926 10.4219 5.02707 12.0312 5.02707C15.3812 5.02707 16.0001 7.23187 16.0001 10.0981V15.9366H12.6937V10.76C12.6937 9.52571 12.671 7.93769 10.9747 7.93769C9.2533 7.93769 8.98891 9.2823 8.98891 10.6709V15.9366H5.68326V5.2918L5.6836 5.29145Z" fill="white"/>
</svg>
